<?xml version="1.0" encoding="UTF-8" standalone="no"?><!DOCTYPE svg PUBLIC "-//W3C//DTD SVG 1.1//EN" "http://www.w3.org/Graphics/SVG/1.1/DTD/svg11.dtd"><svg width="100%" height="100%" viewBox="0 0 1000 1000" version="1.1" xmlns="http://www.w3.org/2000/svg" xmlns:xlink="http://www.w3.org/1999/xlink" xml:space="preserve" xmlns:serif="http://www.serif.com/" style="fill-rule:evenodd;clip-rule:evenodd;stroke-linejoin:round;stroke-miterlimit:2;"><rect id="Mesa-de-trabajo1" serif:id="Mesa de trabajo1" x="0" y="0" width="1000" height="1000" style="fill:none;"/><clipPath id="_clip1"><rect id="Mesa-de-trabajo11" serif:id="Mesa de trabajo1" x="0" y="0" width="1000" height="1000"/></clipPath><g clip-path="url(#_clip1)"><path d="M114.554,811.956c-18.568,23.66 -33.767,36.762 -45.597,39.308c-11.83,2.546 -21.638,2.77 -29.425,0.674c-7.787,-2.096 -14.675,-5.541 -20.665,-10.332c-12.579,-10.782 -18.868,-25.157 -18.868,-43.126c0,-13.177 4.043,-26.355 12.129,-39.532c174.602,-277.626 269.54,-427.969 284.814,-451.03c35.939,-53.309 56.753,-83.258 62.443,-89.847l11.231,-13.477c33.543,-38.634 77.118,-57.951 130.727,-57.951c41.629,0 70.08,9.134 85.354,27.403c3.594,3.893 5.466,11.381 5.615,22.462c0.15,11.081 0.674,28.751 1.572,53.009l2.246,77.268c0.898,27.253 1.947,55.106 3.145,83.557l2.695,83.557c2.396,53.908 4.492,100.329 6.289,139.262c11.68,-20.665 23.51,-44.774 35.489,-72.326l38.185,-87.151c34.741,-77.867 68.283,-139.412 100.628,-184.635c20.365,-29.05 53.908,-43.576 100.628,-43.576c34.441,0 65.288,7.487 92.542,22.462c16.472,8.985 24.558,16.921 24.259,23.809c0,6.289 -2.246,12.279 -6.738,17.969l-9.434,13.028c-21.264,29.649 -42.228,60.497 -62.893,92.542l-60.197,95.687c-84.456,139.562 -133.422,219.675 -146.899,240.339c-13.477,20.665 -23.734,35.115 -30.772,43.351c-7.038,8.236 -16.172,15.199 -27.403,20.889c-11.231,5.69 -24.034,10.782 -38.409,15.274c-31.147,9.883 -57.053,14.825 -77.717,14.825c-34.741,0 -58.251,-4.942 -70.53,-14.825c-13.177,-11.98 -31.746,-81.461 -55.705,-208.444l-15.274,-84.456c-4.792,-28.751 -9.134,-57.352 -13.028,-85.803c-9.883,15.274 -22.611,33.393 -38.185,54.357l-132.074,176.099l-100.179,129.379Z" style="fill:#fff;fill-rule:nonzero;stroke:#fff;stroke-width:1px;"/></g></svg>